<svg width="25" height="24" viewBox="0 0 25 24" fill="none" xmlns="http://www.w3.org/2000/svg">
    <path d="M12.893 22.81a.84.84 0 0 1-.792 0A16.525 16.525 0 0 1 3.36 8.234V3.417a.504.504 0 0 1 .494-.504 23.758 23.758 0 0 0 8.316-1.691l.327-.131.327.13a23.72 23.72 0 0 0 8.318 1.692.504.504 0 0 1 .494.504v4.817a16.523 16.523 0 0 1-8.744 14.576v0z" stroke="#000" stroke-width="1.2" stroke-linecap="round" stroke-linejoin="round"/>
    <path d="M9.227 13.374c.03-.855.272-1.69.705-2.428l2.603-4.843a.644.644 0 0 1 .595-.377.61.61 0 0 1 .437.165.567.567 0 0 1 .172.43.717.717 0 0 1-.109.392l-2.005 3.668.032.032c.327-.19.703-.277 1.08-.251a2.932 2.932 0 0 1 2.157.872 3.107 3.107 0 0 1 .873 2.297 3.205 3.205 0 0 1-.924 2.415 3.245 3.245 0 0 1-2.35.893 3.25 3.25 0 0 1-2.344-.873 3.143 3.143 0 0 1-.922-2.392v0zm1.873-1.433c-.36.395-.548.917-.524 1.451a2.054 2.054 0 0 0 .524 1.456 1.807 1.807 0 0 0 1.388.565 1.829 1.829 0 0 0 1.394-.565c.363-.396.555-.92.534-1.456a2.007 2.007 0 0 0-.534-1.451 1.844 1.844 0 0 0-1.394-.556 1.82 1.82 0 0 0-1.388.556v0z" stroke="#7F5EFF" stroke-width=".299" stroke-linecap="round" stroke-linejoin="round"/>
    <path d="M9.227 13.374c.03-.855.272-1.69.705-2.428l2.603-4.843a.644.644 0 0 1 .596-.377.61.61 0 0 1 .436.165.567.567 0 0 1 .172.43.715.715 0 0 1-.109.392l-2.005 3.668.032.032c.327-.19.704-.277 1.08-.251a2.932 2.932 0 0 1 2.158.872 3.109 3.109 0 0 1 .872 2.297 3.203 3.203 0 0 1-.924 2.415 3.244 3.244 0 0 1-2.35.893 3.25 3.25 0 0 1-2.344-.873 3.143 3.143 0 0 1-.917-2.384l-.005-.008zm1.878-1.425c-.36.395-.548.917-.525 1.45a2.054 2.054 0 0 0 .525 1.457 1.807 1.807 0 0 0 1.387.565 1.827 1.827 0 0 0 1.395-.565c.362-.396.554-.92.533-1.456a2.009 2.009 0 0 0-.533-1.451 1.842 1.842 0 0 0-1.395-.557 1.82 1.82 0 0 0-1.387.557" fill="#7F5EFF"/>
</svg>
