<svg width="24" height="24" viewBox="0 0 24 24" fill="none" xmlns="http://www.w3.org/2000/svg">
<path d="M22.3301 11.9984C22.3301 13.0343 20.7299 13.798 20.4229 14.7349C20.1089 15.7037 20.9429 17.2655 20.3569 18.0704C19.7709 18.8753 18.0169 18.5706 17.2029 19.1635C16.3889 19.7564 16.1589 21.5108 15.1919 21.8238C14.2569 22.1237 13.033 20.8532 11.999 20.8532C10.965 20.8532 9.73993 22.1277 8.80493 21.8238C7.83693 21.5108 7.59895 19.7484 6.79395 19.1635C5.98895 18.5786 4.23287 18.8843 3.64087 18.0704C3.04887 17.2565 3.88897 15.7037 3.57397 14.7349C3.27397 13.802 1.66895 13.0353 1.66895 11.9984C1.66895 10.9615 3.26897 10.1983 3.57397 9.26244C3.88897 8.29456 3.05487 6.73381 3.64087 5.92791C4.22687 5.12202 5.97995 5.42821 6.79395 4.83528C7.60795 4.24236 7.83693 2.48848 8.80493 2.17352C9.73993 1.87356 10.964 3.14849 11.999 3.14849C13.034 3.14849 14.2569 1.87156 15.1919 2.17352C16.1589 2.48848 16.3919 4.25036 17.2029 4.83528C18.0139 5.42021 19.7639 5.11402 20.3569 5.92791C20.9499 6.74181 20.1089 8.29456 20.4229 9.26244C20.7259 10.1983 22.3301 10.9645 22.3301 11.9984Z" stroke="black" stroke-width="0.9" stroke-linecap="round" stroke-linejoin="round"/>
<path d="M15.3461 6.80402L8.65405 17.1937" stroke="black" stroke-width="0.9" stroke-linecap="round" stroke-linejoin="round"/>
<path d="M12.0569 8.59491C12.0567 8.94894 11.9515 9.29528 11.7546 9.58954C11.5578 9.88379 11.2781 10.1129 10.9509 10.2482C10.6238 10.3835 10.2639 10.4186 9.91674 10.3493C9.56956 10.28 9.25068 10.1095 9.00048 9.85907C8.75029 9.60859 8.57985 9.28934 8.51098 8.94208C8.44211 8.59481 8.47786 8.2349 8.61352 7.9079C8.74918 7.58089 8.97871 7.30169 9.27319 7.10516C9.56766 6.90864 9.91379 6.8037 10.2678 6.80389C10.5029 6.80403 10.7358 6.85054 10.9529 6.94061C11.17 7.03069 11.3671 7.16249 11.5332 7.3288C11.6993 7.49511 11.8313 7.69263 11.9211 7.90985C12.011 8.12707 12.057 8.35984 12.0569 8.59491Z" fill="#7A5FF6" stroke="black" stroke-width="0.9" stroke-linecap="round" stroke-linejoin="round"/>
<path d="M15.5849 15.4C15.5852 15.7539 15.4807 16.1001 15.2843 16.3946C15.088 16.6891 14.8087 16.9185 14.4818 17.0543C14.155 17.19 13.7953 17.2256 13.4481 17.1568C13.101 17.088 12.782 16.9181 12.5316 16.668C12.2812 16.4179 12.1106 16.0991 12.0414 15.752C11.9722 15.4049 12.0074 15.0448 12.1427 14.7178C12.2781 14.3908 12.5074 14.1113 12.8017 13.9146C13.0959 13.7179 13.4419 13.6133 13.7958 13.6133C14.2698 13.6136 14.7246 13.8018 15.06 14.1368C15.3953 14.4718 15.5841 14.9259 15.5849 15.4Z" fill="#7A5FF6" stroke="black" stroke-width="0.9" stroke-linecap="round" stroke-linejoin="round"/>
</svg>
